<?xml version="1.0" encoding="iso-8859-1"?>
<!-- Generator: Adobe Illustrator 16.0.0, SVG Export Plug-In . SVG Version: 6.00 Build 0)  -->
<!DOCTYPE svg PUBLIC "-//W3C//DTD SVG 1.1//EN" "http://www.w3.org/Graphics/SVG/1.1/DTD/svg11.dtd">
<svg version="1.1" id="Capa_1" xmlns="http://www.w3.org/2000/svg" xmlns:xlink="http://www.w3.org/1999/xlink" x="0px" y="0px"
	 width="932.857px" height="932.857px" viewBox="0 0 932.857 932.857" style="enable-background:new 0 0 932.857 932.857;"
	 xml:space="preserve">
<g>
	<g>
		<path d="M2.187,352.327c-2.369,49.861,5.104,98.714,22.214,145.201c16.519,44.883,41.276,85.658,73.584,121.189
			s70.55,64.043,113.665,84.744c44.654,21.439,92.578,33.514,142.438,35.883c5.919,0.281,11.916,0.424,17.824,0.424
			c67.019,0,131.697-17.982,188.234-51.568l244.656,244.658l126.296-126.297L687.347,562.805
			c32.137-52.473,50.771-112.48,53.761-175.366c2.369-49.862-5.104-98.714-22.214-145.201
			c-16.521-44.883-41.277-85.657-73.585-121.188C613,85.519,574.758,57.007,531.644,36.306
			c-44.654-21.44-92.579-33.513-142.44-35.882C383.285,0.142,377.288,0,371.379,0c-95.127,0-185.565,36.183-254.655,101.884
			C47.406,167.803,6.729,256.745,2.187,352.327z M163.585,151.16C219.977,97.533,293.773,68,371.379,68
			c4.837,0,9.747,0.117,14.597,0.347c80.544,3.827,154.775,38.791,209.021,98.45c54.247,59.659,82.015,136.872,78.188,217.415
			c-2.171,45.688-14.472,89.507-35.644,128.789c-14.979,27.791-34.391,53.316-57.832,75.607
			c-21.002,19.971-44.421,36.596-69.549,49.604c-42.342,21.918-89.542,33.557-138.247,33.557c-4.837,0-9.747-0.117-14.596-0.348
			c-80.544-3.826-154.775-38.791-209.021-98.449c-54.246-59.66-82.014-136.873-78.186-217.417
			C73.818,277.545,107.014,204.957,163.585,151.16z M834.934,806.559l-30.131,30.131L615.809,647.693
			c3.636-3.201,7.232-6.457,10.761-9.811c6.812-6.48,13.339-13.189,19.592-20.098L834.934,806.559z"/>
	</g>
</g>
<g>
</g>
<g>
</g>
<g>
</g>
<g>
</g>
<g>
</g>
<g>
</g>
<g>
</g>
<g>
</g>
<g>
</g>
<g>
</g>
<g>
</g>
<g>
</g>
<g>
</g>
<g>
</g>
<g>
</g>
</svg>
